<svg width="108" height="37" viewBox="0 0 108 37" fill="none" xmlns="http://www.w3.org/2000/svg">
<path d="M28.4048 2.95708C29.3456 2.74468 30.2982 2.63848 31.2625 2.63848C32.2504 2.63848 33.2029 2.74468 34.1202 2.95708L28.052 26.215C26.9935 26.4038 25.9586 26.4982 24.9473 26.4982C24.03 26.4982 22.9833 26.4038 21.8073 26.215L17.5736 10.6035L13.2694 26.215C12.2109 26.4038 11.1996 26.4982 10.2352 26.4982C9.31793 26.4982 8.27128 26.4038 7.09525 26.215L0.991699 2.95708C1.95604 2.74468 2.90861 2.63848 3.84943 2.63848C4.81377 2.63848 5.76635 2.74468 6.70717 2.95708L10.6586 19.3474L14.4689 2.95708C15.4568 2.74468 16.4917 2.63848 17.5736 2.63848C18.6556 2.63848 19.6669 2.74468 20.6077 2.95708L25.1942 19.4182L28.4048 2.95708Z" fill="white"/>
<path d="M42.3511 26.5337C40.493 26.5337 38.8701 26.156 37.4824 25.4008C36.0947 24.6456 35.0245 23.5718 34.2718 22.1794C33.5192 20.7634 33.1429 19.135 33.1429 17.2942C33.1429 15.4298 33.5309 13.8132 34.3071 12.4443C35.0833 11.0519 36.1652 9.97813 37.5529 9.22293C38.9642 8.46772 40.5636 8.09012 42.3511 8.09012C44.2092 8.09012 45.8321 8.47952 47.2198 9.25833C48.6075 10.0135 49.6777 11.0873 50.4304 12.4797C51.183 13.8722 51.5594 15.477 51.5594 17.2942C51.5594 19.1822 51.183 20.8224 50.4304 22.2148C49.6777 23.6072 48.6075 24.681 47.2198 25.4362C45.8321 26.1678 44.2092 26.5337 42.3511 26.5337ZM42.3511 21.9316C43.5977 21.9316 44.5503 21.5422 45.2088 20.7634C45.8909 19.961 46.232 18.8046 46.232 17.2942C46.232 15.831 45.8909 14.6982 45.2088 13.8958C44.5268 13.0934 43.5742 12.6922 42.3511 12.6922C41.1516 12.6922 40.199 13.1052 39.4934 13.9312C38.8113 14.7336 38.4702 15.8546 38.4702 17.2942C38.4702 18.8046 38.8113 19.961 39.4934 20.7634C40.1755 21.5422 41.128 21.9316 42.3511 21.9316Z" fill="white"/>
<path d="M73.2936 8.12552C75.2694 8.12552 76.904 8.62112 78.1976 9.61233C79.4913 10.6035 80.1381 11.9251 80.1381 13.5772V26.1796H74.8813V15.4534C74.8813 14.533 74.5873 13.8368 73.9993 13.3648C73.4348 12.8692 72.6233 12.6214 71.5649 12.6214C70.6241 12.6214 69.7185 12.7984 68.8483 13.1524C69.1305 13.9312 69.2716 14.7808 69.2716 15.7012V26.1796H64.0148V15.4534C64.0148 14.533 63.7208 13.8368 63.1328 13.3648C62.5683 12.8692 61.7569 12.6214 60.6984 12.6214C59.8987 12.6214 59.1461 12.7158 58.4405 12.9046V26.1796H53.1131L53.1484 10.4265C54.1833 9.69493 55.4534 9.12853 56.9587 8.72732C58.464 8.32612 59.934 8.12552 61.3688 8.12552C62.4507 8.12552 63.4621 8.30252 64.4029 8.65652C65.3437 8.98692 66.1669 9.45893 66.8726 10.0725C67.7899 9.48253 68.8248 9.01052 69.9773 8.65652C71.1298 8.30252 72.2352 8.12552 73.2936 8.12552Z" fill="white"/>
<path d="M90.3877 8.12552C93.61 8.12552 96.1267 8.97512 97.9377 10.6743C99.7723 12.3735 100.69 14.7808 100.69 17.896C100.69 20.4684 100.055 22.557 98.7845 24.1618C97.5379 25.743 95.6445 26.5337 93.1043 26.5337C92.2811 26.5337 91.4461 26.4038 90.5994 26.1442C89.7526 25.861 88.9647 25.4716 88.2356 24.976V31.5251C87.6711 31.9735 86.8243 32.3747 85.6954 32.7287C84.5899 33.0827 83.6608 33.2597 82.9082 33.2597V9.50613C83.802 9.08132 84.9074 8.75092 86.2246 8.51492C87.5652 8.25532 88.9529 8.12552 90.3877 8.12552ZM90.8463 22.0732C92.3281 22.0732 93.4571 21.6956 94.2333 20.9404C95.0094 20.1852 95.3975 18.958 95.3975 17.2588C95.3975 15.8428 94.9977 14.6746 94.198 13.7542C93.4218 12.8338 92.2576 12.3735 90.7052 12.3735C89.929 12.3735 89.1058 12.4444 88.2356 12.586V21.8254C89.0588 21.9906 89.929 22.0732 90.8463 22.0732Z" fill="white"/>
<path d="M105.22 5.7537C104.467 5.7537 103.82 5.4941 103.279 4.9749C102.762 4.43209 102.503 3.78309 102.503 3.02788C102.503 2.27268 102.774 1.63547 103.315 1.11627C103.856 0.573465 104.491 0.302063 105.22 0.302063C105.973 0.302063 106.619 0.573465 107.16 1.11627C107.701 1.63547 107.972 2.27268 107.972 3.02788C107.972 3.75949 107.701 4.39669 107.16 4.9395C106.619 5.4823 105.973 5.7537 105.22 5.7537ZM102.574 8.62112C103.35 8.29072 104.244 8.12552 105.255 8.12552C106.243 8.12552 107.125 8.29072 107.901 8.62112V26.1796H102.574V8.62112Z" fill="white"/>
<path d="M6.22412 35.5368V31.8994C6.22412 31.5341 6.47886 31.2206 6.83697 31.1546C8.60675 30.8284 13.8782 29.9299 18.2542 29.9299C22.641 29.9299 28.0561 30.8328 29.8591 31.157C30.219 31.2217 30.4753 31.536 30.4753 31.9029V35.5557C30.4753 36.0837 29.9522 36.4729 29.4404 36.3503C27.7962 35.9565 24.1557 35.2948 18.2542 35.2948C12.4226 35.2948 8.89076 35.9409 7.27559 36.3362C6.7593 36.4626 6.22412 36.0701 6.22412 35.5368Z" fill="white"/>
</svg>
